PathFileType	4	(X/Y/Z)	C:\Users\Basilio\Documents\Thesis Gigler\squatting_fais\c3dfiles\019\SLS_back_pre5\markers_experimental.trc
DataRate	CameraRate	NumFrames	NumMarkers	Units	OrigDataRate	OrigDataStartFrame	OrigNumFrames
200.000000	200.000000	4	59	mm	200.000000	777	2073
Frame#	Time	FHD			LBHD			RBHD			C7			T10			CLAV			LSHO			LUUPA			LMUPA			LDUPA			LLEP			LMEP			LRAD			LUL			LRFIN			RSHO			RUPA1			RMUPA			RDUPA			RLEP			RMEP			RRAD			RUL			RUFIN			LASI			RASI			USACR			LSACR			RSACR			LTHI1			LTHI2			LTHI3			LTHI4			LLFC			LTIB1			LTIB2			LTIB3			LTIB4			LLMAL			LMMAL			LHEE			LMT1			LMT2			LMT5			RTHI			RTHI2			RTHI3			RTHI4			RLFC			RTIB1			RTIB2			RTIB3			RTIB4			RLMAL			RMMAL			RHEE			RMT1			RMT2			RMT5			
		X1	Y1	Z1	X2	Y2	Z2	X3	Y3	Z3	X4	Y4	Z4	X5	Y5	Z5	X6	Y6	Z6	X7	Y7	Z7	X8	Y8	Z8	X9	Y9	Z9	X10	Y10	Z10	X11	Y11	Z11	X12	Y12	Z12	X13	Y13	Z13	X14	Y14	Z14	X15	Y15	Z15	X16	Y16	Z16	X17	Y17	Z17	X18	Y18	Z18	X19	Y19	Z19	X20	Y20	Z20	X21	Y21	Z21	X22	Y22	Z22	X23	Y23	Z23	X24	Y24	Z24	X25	Y25	Z25	X26	Y26	Z26	X27	Y27	Z27	X28	Y28	Z28	X29	Y29	Z29	X30	Y30	Z30	X31	Y31	Z31	X32	Y32	Z32	X33	Y33	Z33	X34	Y34	Z34	X35	Y35	Z35	X36	Y36	Z36	X37	Y37	Z37	X38	Y38	Z38	X39	Y39	Z39	X40	Y40	Z40	X41	Y41	Z41	X42	Y42	Z42	X43	Y43	Z43	X44	Y44	Z44	X45	Y45	Z45	X46	Y46	Z46	X47	Y47	Z47	X48	Y48	Z48	X49	Y49	Z49	X50	Y50	Z50	X51	Y51	Z51	X52	Y52	Z52	X53	Y53	Z53	X54	Y54	Z54	X55	Y55	Z55	X56	Y56	Z56	X57	Y57	Z57	X58	Y58	Z58	X59	Y59	Z59	

778	3.885	-291.6902160644532	1679.447387695313	-855.292907714844	-415.2862243652345	1609.188598632813	-993.8854980468752	-425.7478637695314	1634.356079101563	-856.936218261719	-447.3783264160157	1449.4931640625	-860.235290527344	-460.3347473144532	1195.071655273438	-721.3204956054689	-310.0942077636719	1420.169677734375	-848.1198730468752	-370.8867797851563	1378.061767578125	-989.8024902343752	-251.4346008300782	1312.183959960938	-1047.50634765625	-214.6246948242188	1329.632568359375	-1019.155334472656	-187.6882019042969	1302.709594726563	-1065.401977539063	-125.4365615844727	1250.515380859375	-1086.656127929688	-120.3986587524414	1211.221801757813	-1043.700073242188	125.1786651611328	1294.861328125	-1100.287231445313	120.5567169189453	1232.385864257813	-1118.810424804688	196.0976104736329	1300.602294921875	-1129.739868164063	-370.5765380859376	1505.2255859375	-745.5142211914064	-277.4058837890626	1496.725952148438	-585.4781494140626	-243.4792785644532	1509.318359375	-615.8690185546876	-213.577377319336	1493.841918945313	-559.9047241210939	-138.3197479248047	1489.598999023438	-542.2662353515626	-144.104232788086	1434.130981445313	-538.2984008789064	104.7167434692383	1534.85693359375	-566.8796997070314	111.5846862792969	1506.546997070313	-508.1180114746095	182.26416015625	1558.182983398438	-549.9008178710939	-294.8873596191407	1004.088439941406	-800.2823486328127	-290.6648559570313	1009.683044433594	-593.8573608398439	-453.1716613769532	1071.09814453125	-688.4866333007814	-459.3284912109376	1036.47021484375	-714.2003173828126	-453.8308715820314	1041.126098632813	-656.6350097656251	-276.6575317382813	757.3810424804689	-874.5886230468752	-215.1897888183594	697.8483886718751	-875.4020996093752	-174.3150634765625	715.3652954101564	-855.8055419921877	-221.5895538330079	637.4220581054689	-868.3425903320315	-210.1271362304688	554.4090576171876	-851.8479003906252	-271.4002075195313	429.4585266113282	-824.1677246093752	-338.6914672851563	450.8225097656251	-876.6193847656252	-319.9699707031251	418.2391967773439	-853.6949462890627	-388.6961364746095	377.6898193359376	-818.935485839844	-535.7644653320314	364.2722473144532	-845.5676879882815	-514.0735473632814	351.5447692871094	-762.2526245117189	-604.2260742187501	389.3351440429689	-794.1392822265627	-499.1936035156251	204.3737335205079	-776.6346435546877	-498.7561645507814	200.8350067138672	-816.432067871094	-543.8915405273439	221.4152832031251	-865.8062133789065	-316.8136901855469	786.5477294921877	-537.0501708984376	-272.6899108886719	739.5261230468751	-550.5070800781251	-248.4645080566407	749.9827880859376	-576.2482910156251	-293.6764526367188	660.5156250000001	-563.4329223632814	-323.3145141601563	499.2713928222657	-613.4156494140626	-296.7610473632813	329.8828735351563	-708.7832641601564	-348.6159362792969	244.3017120361329	-662.6032714843751	-317.6741943359376	245.2561798095704	-698.5095825195314	-336.8720397949219	213.4544372558594	-743.9957885742189	-397.9216918945314	127.3631896972657	-708.6885986328126	-386.7984924316407	139.4840087890625	-783.012878417969	-467.9573364257814	107.0468902587891	-761.3298339843751	-269.1003417968751	56.0244598388672	-792.4260864257815	-259.2448120117188	56.9028778076172	-749.1694335937501	-300.9352722167969	51.4647903442383	-692.4706420898439	
779	3.89	-291.9178161621094	1679.390747070313	-855.6460571289065	-415.3718566894532	1608.924560546875	-994.1313476562502	-425.8299865722657	1634.275024414063	-857.2398681640627	-447.5809326171876	1449.376708984375	-860.4490966796877	-460.4904174804689	1195.020629882813	-721.4309692382814	-310.3019714355469	1419.840454101563	-848.296081542969	-371.1082458496094	1377.896240234375	-989.9734497070315	-251.6634521484376	1311.907592773438	-1047.660888671875	-214.9656677246094	1329.447021484375	-1019.350158691406	-188.0049743652344	1302.477661132813	-1065.61279296875	-125.6967468261719	1250.269165039063	-1086.788208007813	-120.9032058715821	1211.1533203125	-1043.874755859375	124.8074264526367	1294.619506835938	-1100.520874023438	120.419418334961	1232.014282226563	-1118.828857421875	195.8568267822266	1300.302734375	-1129.877807617188	-370.6918640136719	1505.105590820313	-745.6951293945314	-277.4496154785157	1496.621948242188	-585.6283569335939	-243.6120605468751	1509.275512695313	-615.9819946289064	-213.7830657958985	1493.63037109375	-560.1364135742189	-138.4761352539063	1489.515380859375	-542.3929443359376	-144.2711029052735	1434.042602539063	-538.5386962890626	104.4650421142578	1534.932739257813	-567.0179443359376	111.3954467773438	1506.482177734375	-508.2548828125001	181.9841613769532	1558.287353515625	-549.9089965820314	-294.9639587402344	1004.090148925781	-800.3035278320315	-290.8414916992188	1009.682556152344	-593.8491210937501	-453.3794860839845	1071.014526367188	-688.5601806640626	-459.1930541992189	1036.353759765625	-714.1950073242189	-454.1207885742189	1041.110473632813	-656.6472167968751	-276.5168457031251	757.5219726562501	-874.9041748046877	-214.9618682861329	698.1880493164064	-875.753112792969	-174.1090240478516	715.7366943359376	-856.1448974609377	-221.1844329833985	637.7484130859376	-868.8464355468752	-209.9048919677735	554.8731079101564	-852.4508056640627	-270.6823425292969	429.6507263183595	-824.999450683594	-338.1923522949219	451.2884216308595	-877.284851074219	-319.4010314941407	418.5657043457032	-854.4997558593752	-387.8847656250001	377.8262329101563	-819.926452636719	-535.0986938476564	364.6370239257813	-846.322692871094	-513.3701782226564	351.2081604003907	-763.0150756835939	-603.8232421875001	388.9455566406251	-794.5025024414065	-497.5088806152345	204.3488311767579	-778.9954223632815	-497.3692626953126	201.0679473876954	-818.577575683594	-542.5703735351564	222.1571960449219	-868.049011230469	-316.9382629394532	786.6208496093752	-537.0507202148439	-272.7959289550782	739.6195678710939	-550.4788208007814	-248.8733673095704	749.9878540039064	-576.3945312500001	-293.7273254394532	660.5681152343751	-563.4457397460939	-323.2733459472657	499.1809997558595	-613.3704833984376	-296.4925537109376	329.4600830078126	-708.7290039062501	-348.6017761230469	244.2789001464844	-662.5148315429689	-317.6259765625001	245.1599884033204	-698.4524536132814	-336.8198547363282	213.4160308837891	-743.9406738281251	-397.9147949218751	127.3094329833985	-708.6307983398439	-386.7815246582032	139.5099792480469	-782.8958129882815	-468.3545837402345	106.7967147827149	-759.6951904296876	-269.1322326660157	56.04192352294923	-792.364196777344	-259.2612304687501	56.9281349182129	-749.1123657226564	-300.9250183105469	51.45454025268556	-692.4777221679689	
780	3.895	-292.1631469726563	1679.4228515625	-855.9104614257815	-415.486541748047	1608.738159179688	-994.317077636719	-426.0511779785157	1634.1884765625	-857.5113525390627	-447.7425537109376	1449.307861328125	-860.5969238281252	-460.7569580078126	1194.9716796875	-721.4691162109376	-310.4553222656251	1419.7021484375	-848.5100097656252	-371.2701110839844	1377.777099609375	-990.1071777343752	-252.0111694335938	1311.689453125	-1047.795166015625	-215.1286773681641	1329.238159179688	-1019.472045898438	-188.2300262451172	1302.236206054688	-1065.728393554688	-125.9861831665039	1249.970092773438	-1086.912109375	-121.2839660644532	1211.13818359375	-1044.068481445313	124.6591415405274	1294.430786132813	-1100.461181640625	120.2109298706055	1231.741943359375	-1118.907958984375	195.6066284179688	1300.146484375	-1129.95703125	-370.8482666015626	1505.049194335938	-745.8794555664064	-277.6820068359376	1496.53515625	-585.8210449218751	-243.8558044433594	1509.193115234375	-616.1592407226564	-214.1014556884766	1493.482421875	-560.2620239257814	-138.6504211425782	1489.442993164063	-542.5164794921876	-144.4418182373047	1433.873413085938	-538.7196044921876	104.2695083618164	1535.016845703125	-567.1065673828126	111.094223022461	1506.438720703125	-508.3089599609376	181.7419586181641	1558.328979492188	-550.0206909179689	-295.0671081542969	1004.072814941406	-800.316589355469	-291.0135498046876	1009.723510742188	-593.8504028320314	-453.4370422363282	1070.920532226563	-688.6771240234376	-459.320281982422	1036.198852539063	-714.2402343750001	-454.4432983398439	1041.120239257813	-656.6664428710939	-276.4788818359376	757.7095336914064	-875.1915283203127	-214.7517700195313	698.6680297851564	-876.1342773437502	-173.7963104248047	716.1450195312501	-856.4710083007815	-220.7251892089844	638.0599975585939	-869.2591552734377	-209.3232879638672	555.2066650390626	-853.052185058594	-269.9928894042969	429.8921813964845	-826.0637817382815	-337.7368164062501	451.6920166015626	-878.0430297851565	-318.7833557128907	418.9617614746095	-855.604431152344	-387.1318664550782	377.8957824707032	-820.933776855469	-534.3690795898439	364.8146667480469	-847.1177978515627	-512.7539672851564	350.9639892578126	-763.8690795898439	-603.5781250000001	388.6553649902345	-795.0864257812502	-496.3889160156251	204.3105926513672	-781.0283813476565	-495.4260559082032	200.6698913574219	-821.083679199219	-541.3702392578126	222.6793823242188	-870.0305175781252	-317.0672912597657	786.6460571289065	-537.0534057617189	-272.8679504394532	739.7068481445314	-550.4179077148439	-249.2647705078126	749.9417114257814	-576.5145874023439	-293.7602539062501	660.5531616210939	-563.3985595703126	-323.2965087890626	499.080780029297	-613.2091064453126	-296.4526672363282	329.4008178710938	-708.5890502929689	-348.6060791015626	244.2847290039063	-662.4060668945314	-317.7382202148438	245.1605987548829	-698.3825073242189	-336.7445373535157	213.4448547363282	-743.8889160156251	-398.3038024902345	127.0343093872071	-708.4349365234376	-386.7644042968751	139.5155334472657	-782.8694458007815	-468.0126037597657	107.0586166381836	-760.9769897460939	-269.1042785644532	56.03181838989259	-792.3123779296877	-259.2445068359376	56.93685150146486	-748.9978027343751	-300.9307556152344	51.46083068847658	-692.4709472656251	
781	3.9	-292.3731384277344	1679.3818359375	-856.2065429687502	-415.5299682617189	1608.510375976563	-994.5522460937502	-426.3277893066407	1634.14794921875	-857.6296386718752	-447.975555419922	1449.28173828125	-860.7261352539065	-460.9360656738282	1194.950805664063	-721.5455932617189	-310.6366271972657	1419.623779296875	-848.635437011719	-371.6098327636719	1377.724609375	-990.2755126953127	-252.2273254394532	1311.538330078125	-1047.912353515625	-215.4578399658204	1329.07080078125	-1019.667907714844	-188.5158386230469	1302.004760742188	-1065.797973632813	-126.2363510131836	1249.788330078125	-1086.978881835938	-121.4929809570313	1210.979248046875	-1044.150634765625	124.309440612793	1294.265991210938	-1100.51513671875	119.9316482543946	1231.558959960938	-1118.912719726563	195.2347717285157	1299.98291015625	-1129.997924804688	-370.9519348144532	1505.015991210938	-746.0416870117189	-277.8597412109376	1495.97509765625	-586.0430297851564	-244.0593566894532	1509.103149414063	-616.3078002929689	-214.2266235351563	1493.476806640625	-560.3537597656251	-138.8263092041016	1489.265625	-542.6352539062501	-144.6099853515625	1433.747436523438	-538.8860473632814	104.0626296997071	1534.997436523438	-567.2436523437501	110.9827651977539	1506.345336914063	-508.5185852050782	181.6397705078125	1558.3427734375	-550.1325683593751	-295.0952453613282	1004.065551757813	-800.3953247070315	-291.1145935058594	1009.734680175781	-593.8840942382814	-453.6609802246095	1070.8837890625	-688.7525024414064	-459.545379638672	1036.28564453125	-714.2764892578126	-454.5200805664064	1041.034545898438	-656.7678222656251	-276.3921203613282	757.9487304687501	-875.5587158203127	-214.6401367187501	699.1712646484376	-876.612243652344	-173.5669097900391	716.5243530273439	-856.7705078125002	-220.5111846923829	638.4923095703126	-869.9650878906252	-208.7439422607422	555.6101684570314	-853.7299804687502	-269.4003601074219	430.2909545898439	-826.9685668945315	-337.4034729003907	452.0654907226564	-878.6582031250002	-318.1244201660157	419.3454589843751	-856.4697265625002	-386.5325012207032	378.0664978027344	-822.0634765625002	-533.6854248046876	364.9396362304688	-848.2000122070315	-511.8762817382814	350.6078491210938	-765.0651855468751	-603.1981201171876	388.2376708984376	-795.7920532226565	-495.2520141601564	204.1939697265626	-783.099060058594	-494.2920227050782	201.6326599121094	-823.1475830078127	-539.7288818359376	223.3204803466797	-871.421325683594	-317.2498474121094	786.6944580078127	-537.1788330078126	-272.9807739257813	739.7745971679689	-550.4118041992189	-249.6360473632813	749.9160766601564	-576.6209716796876	-293.8382263183594	660.5726928710939	-563.4487915039064	-323.2803649902344	499.0743408203126	-613.2469482421876	-296.4376525878907	329.3862304687501	-708.5996093750001	-348.6419982910157	244.2996368408204	-662.4448852539064	-317.6568603515626	245.1853179931641	-698.3240356445314	-336.7878417968751	213.465560913086	-743.8955078125001	-398.0408325195314	126.8644561767578	-708.6765747070314	-386.7559814453126	139.5655975341797	-782.8131103515627	-467.6821899414064	107.4346160888672	-761.4014282226564	-268.8716125488282	56.48052215576173	-792.1209716796877	-259.2459716796876	56.93680953979494	-749.0050659179689	-300.9379882812501	51.42090988159181	-692.4669799804689	
